<svg id="Group_21" data-name="Group 21" xmlns="http://www.w3.org/2000/svg" xmlns:xlink="http://www.w3.org/1999/xlink" width="1920" height="681" viewBox="0 0 1920 681">
  <defs>
    <clipPath id="clip-path">
      <rect id="Rectangle_18" data-name="Rectangle 18" width="1920" height="681" fill="#fff"/>
    </clipPath>
    <clipPath id="clip-path-2">
      <rect id="Rectangle_19" data-name="Rectangle 19" width="1920" height="605" fill="#fff"/>
    </clipPath>
  </defs>
  <g id="Mask_Group_3" data-name="Mask Group 3" clip-path="url(#clip-path)">
    <path id="Path_2" data-name="Path 2" d="M31.456,618.628s19.5-62.267,72.9-174.649c41.546-87.446,98.9-234.027,212.734-220.178,42.905,5.22,91.627,22.531,147.5,55.8,399.127,237.665,1585.769,277.963,1498.069-45.331-1.969-7.258-.072-15.04,0-22.718.143-15.352.753-32.3,0-45.436-3.419-59.67,1.812-99.779,0-132.813-5.9-107.643,0-94.472,0-94.472H31.456Z" transform="translate(-31 62)" fill="#3e9bc5"/>
  </g>
  <g id="Mask_Group_4" data-name="Mask Group 4" clip-path="url(#clip-path-2)">
    <path id="Path_3" data-name="Path 3" d="M31.456,618.628s19.5-62.267,72.9-174.649c41.546-87.446,98.9-234.027,212.734-220.178,42.905,5.22,91.627,22.531,147.5,55.8,399.127,237.665,1585.769,277.963,1498.069-45.331-1.969-7.258-.072-15.04,0-22.718.143-15.352.753-32.3,0-45.436-3.419-59.67,1.812-99.779,0-132.813-5.9-107.643,0-94.472,0-94.472H31.456Z" transform="translate(-31 -14)" fill="#3e7dc5"/>
  </g>
</svg>
